<svg xmlns="http://www.w3.org/2000/svg" viewBox="0 0 100 100" preserveAspectRatio="xMidYMid" width="200" height="200" style="shape-rendering: auto; display: block; background: transparent;" xmlns:xlink="http://www.w3.org/1999/xlink"><g><g transform="rotate(0 50 50)">
  <rect fill="#5651e5" height="5" width="15" ry="2.5" rx="7.3500000000000005" y="22.5" x="42.5">
    <animate repeatCount="indefinite" begin="-0.9871794871794872s" dur="1s" keyTimes="0;1" values="1;0" attributeName="opacity"></animate>
  </rect>
</g><g transform="rotate(4.615384615384615 50 50)">
  <rect fill="#5651e5" height="5" width="15" ry="2.5" rx="7.3500000000000005" y="22.5" x="42.5">
    <animate repeatCount="indefinite" begin="-0.9743589743589743s" dur="1s" keyTimes="0;1" values="1;0" attributeName="opacity"></animate>
  </rect>
</g><g transform="rotate(9.23076923076923 50 50)">
  <rect fill="#5651e5" height="5" width="15" ry="2.5" rx="7.3500000000000005" y="22.5" x="42.5">
    <animate repeatCount="indefinite" begin="-0.9615384615384616s" dur="1s" keyTimes="0;1" values="1;0" attributeName="opacity"></animate>
  </rect>
</g><g transform="rotate(13.846153846153847 50 50)">
  <rect fill="#5651e5" height="5" width="15" ry="2.5" rx="7.3500000000000005" y="22.5" x="42.5">
    <animate repeatCount="indefinite" begin="-0.9487179487179487s" dur="1s" keyTimes="0;1" values="1;0" attributeName="opacity"></animate>
  </rect>
</g><g transform="rotate(18.46153846153846 50 50)">
  <rect fill="#5651e5" height="5" width="15" ry="2.5" rx="7.3500000000000005" y="22.5" x="42.5">
    <animate repeatCount="indefinite" begin="-0.9358974358974359s" dur="1s" keyTimes="0;1" values="1;0" attributeName="opacity"></animate>
  </rect>
</g><g transform="rotate(23.076923076923077 50 50)">
  <rect fill="#5651e5" height="5" width="15" ry="2.5" rx="7.3500000000000005" y="22.5" x="42.5">
    <animate repeatCount="indefinite" begin="-0.9230769230769231s" dur="1s" keyTimes="0;1" values="1;0" attributeName="opacity"></animate>
  </rect>
</g><g transform="rotate(27.692307692307693 50 50)">
  <rect fill="#5651e5" height="5" width="15" ry="2.5" rx="7.3500000000000005" y="22.5" x="42.5">
    <animate repeatCount="indefinite" begin="-0.9102564102564102s" dur="1s" keyTimes="0;1" values="1;0" attributeName="opacity"></animate>
  </rect>
</g><g transform="rotate(32.30769230769231 50 50)">
  <rect fill="#5651e5" height="5" width="15" ry="2.5" rx="7.3500000000000005" y="22.5" x="42.5">
    <animate repeatCount="indefinite" begin="-0.8974358974358975s" dur="1s" keyTimes="0;1" values="1;0" attributeName="opacity"></animate>
  </rect>
</g><g transform="rotate(36.92307692307692 50 50)">
  <rect fill="#5651e5" height="5" width="15" ry="2.5" rx="7.3500000000000005" y="22.5" x="42.5">
    <animate repeatCount="indefinite" begin="-0.8846153846153846s" dur="1s" keyTimes="0;1" values="1;0" attributeName="opacity"></animate>
  </rect>
</g><g transform="rotate(41.53846153846154 50 50)">
  <rect fill="#5651e5" height="5" width="15" ry="2.5" rx="7.3500000000000005" y="22.5" x="42.5">
    <animate repeatCount="indefinite" begin="-0.8717948717948718s" dur="1s" keyTimes="0;1" values="1;0" attributeName="opacity"></animate>
  </rect>
</g><g transform="rotate(46.15384615384615 50 50)">
  <rect fill="#5651e5" height="5" width="15" ry="2.5" rx="7.3500000000000005" y="22.5" x="42.5">
    <animate repeatCount="indefinite" begin="-0.8589743589743589s" dur="1s" keyTimes="0;1" values="1;0" attributeName="opacity"></animate>
  </rect>
</g><g transform="rotate(50.76923076923077 50 50)">
  <rect fill="#5651e5" height="5" width="15" ry="2.5" rx="7.3500000000000005" y="22.5" x="42.5">
    <animate repeatCount="indefinite" begin="-0.8461538461538461s" dur="1s" keyTimes="0;1" values="1;0" attributeName="opacity"></animate>
  </rect>
</g><g transform="rotate(55.38461538461539 50 50)">
  <rect fill="#5651e5" height="5" width="15" ry="2.5" rx="7.3500000000000005" y="22.5" x="42.5">
    <animate repeatCount="indefinite" begin="-0.8333333333333334s" dur="1s" keyTimes="0;1" values="1;0" attributeName="opacity"></animate>
  </rect>
</g><g transform="rotate(60 50 50)">
  <rect fill="#5651e5" height="5" width="15" ry="2.5" rx="7.3500000000000005" y="22.5" x="42.5">
    <animate repeatCount="indefinite" begin="-0.8205128205128205s" dur="1s" keyTimes="0;1" values="1;0" attributeName="opacity"></animate>
  </rect>
</g><g transform="rotate(64.61538461538461 50 50)">
  <rect fill="#5651e5" height="5" width="15" ry="2.5" rx="7.3500000000000005" y="22.5" x="42.5">
    <animate repeatCount="indefinite" begin="-0.8076923076923077s" dur="1s" keyTimes="0;1" values="1;0" attributeName="opacity"></animate>
  </rect>
</g><g transform="rotate(69.23076923076923 50 50)">
  <rect fill="#5651e5" height="5" width="15" ry="2.5" rx="7.3500000000000005" y="22.5" x="42.5">
    <animate repeatCount="indefinite" begin="-0.7948717948717948s" dur="1s" keyTimes="0;1" values="1;0" attributeName="opacity"></animate>
  </rect>
</g><g transform="rotate(73.84615384615384 50 50)">
  <rect fill="#5651e5" height="5" width="15" ry="2.5" rx="7.3500000000000005" y="22.5" x="42.5">
    <animate repeatCount="indefinite" begin="-0.782051282051282s" dur="1s" keyTimes="0;1" values="1;0" attributeName="opacity"></animate>
  </rect>
</g><g transform="rotate(78.46153846153847 50 50)">
  <rect fill="#5651e5" height="5" width="15" ry="2.5" rx="7.3500000000000005" y="22.5" x="42.5">
    <animate repeatCount="indefinite" begin="-0.7692307692307693s" dur="1s" keyTimes="0;1" values="1;0" attributeName="opacity"></animate>
  </rect>
</g><g transform="rotate(83.07692307692308 50 50)">
  <rect fill="#5651e5" height="5" width="15" ry="2.5" rx="7.3500000000000005" y="22.5" x="42.5">
    <animate repeatCount="indefinite" begin="-0.7564102564102564s" dur="1s" keyTimes="0;1" values="1;0" attributeName="opacity"></animate>
  </rect>
</g><g transform="rotate(87.6923076923077 50 50)">
  <rect fill="#5651e5" height="5" width="15" ry="2.5" rx="7.3500000000000005" y="22.5" x="42.5">
    <animate repeatCount="indefinite" begin="-0.7435897435897436s" dur="1s" keyTimes="0;1" values="1;0" attributeName="opacity"></animate>
  </rect>
</g><g transform="rotate(92.3076923076923 50 50)">
  <rect fill="#5651e5" height="5" width="15" ry="2.5" rx="7.3500000000000005" y="22.5" x="42.5">
    <animate repeatCount="indefinite" begin="-0.7307692307692307s" dur="1s" keyTimes="0;1" values="1;0" attributeName="opacity"></animate>
  </rect>
</g><g transform="rotate(96.92307692307692 50 50)">
  <rect fill="#5651e5" height="5" width="15" ry="2.5" rx="7.3500000000000005" y="22.5" x="42.5">
    <animate repeatCount="indefinite" begin="-0.717948717948718s" dur="1s" keyTimes="0;1" values="1;0" attributeName="opacity"></animate>
  </rect>
</g><g transform="rotate(101.53846153846153 50 50)">
  <rect fill="#5651e5" height="5" width="15" ry="2.5" rx="7.3500000000000005" y="22.5" x="42.5">
    <animate repeatCount="indefinite" begin="-0.7051282051282052s" dur="1s" keyTimes="0;1" values="1;0" attributeName="opacity"></animate>
  </rect>
</g><g transform="rotate(106.15384615384616 50 50)">
  <rect fill="#5651e5" height="5" width="15" ry="2.5" rx="7.3500000000000005" y="22.5" x="42.5">
    <animate repeatCount="indefinite" begin="-0.6923076923076923s" dur="1s" keyTimes="0;1" values="1;0" attributeName="opacity"></animate>
  </rect>
</g><g transform="rotate(110.76923076923077 50 50)">
  <rect fill="#5651e5" height="5" width="15" ry="2.5" rx="7.3500000000000005" y="22.5" x="42.5">
    <animate repeatCount="indefinite" begin="-0.6794871794871795s" dur="1s" keyTimes="0;1" values="1;0" attributeName="opacity"></animate>
  </rect>
</g><g transform="rotate(115.38461538461539 50 50)">
  <rect fill="#5651e5" height="5" width="15" ry="2.5" rx="7.3500000000000005" y="22.5" x="42.5">
    <animate repeatCount="indefinite" begin="-0.6666666666666666s" dur="1s" keyTimes="0;1" values="1;0" attributeName="opacity"></animate>
  </rect>
</g><g transform="rotate(120 50 50)">
  <rect fill="#5651e5" height="5" width="15" ry="2.5" rx="7.3500000000000005" y="22.5" x="42.5">
    <animate repeatCount="indefinite" begin="-0.6538461538461539s" dur="1s" keyTimes="0;1" values="1;0" attributeName="opacity"></animate>
  </rect>
</g><g transform="rotate(124.61538461538461 50 50)">
  <rect fill="#5651e5" height="5" width="15" ry="2.5" rx="7.3500000000000005" y="22.5" x="42.5">
    <animate repeatCount="indefinite" begin="-0.6410256410256411s" dur="1s" keyTimes="0;1" values="1;0" attributeName="opacity"></animate>
  </rect>
</g><g transform="rotate(129.23076923076923 50 50)">
  <rect fill="#5651e5" height="5" width="15" ry="2.5" rx="7.3500000000000005" y="22.5" x="42.5">
    <animate repeatCount="indefinite" begin="-0.6282051282051282s" dur="1s" keyTimes="0;1" values="1;0" attributeName="opacity"></animate>
  </rect>
</g><g transform="rotate(133.84615384615384 50 50)">
  <rect fill="#5651e5" height="5" width="15" ry="2.5" rx="7.3500000000000005" y="22.5" x="42.5">
    <animate repeatCount="indefinite" begin="-0.6153846153846154s" dur="1s" keyTimes="0;1" values="1;0" attributeName="opacity"></animate>
  </rect>
</g><g transform="rotate(138.46153846153845 50 50)">
  <rect fill="#5651e5" height="5" width="15" ry="2.5" rx="7.3500000000000005" y="22.5" x="42.5">
    <animate repeatCount="indefinite" begin="-0.6025641025641025s" dur="1s" keyTimes="0;1" values="1;0" attributeName="opacity"></animate>
  </rect>
</g><g transform="rotate(143.07692307692307 50 50)">
  <rect fill="#5651e5" height="5" width="15" ry="2.5" rx="7.3500000000000005" y="22.5" x="42.5">
    <animate repeatCount="indefinite" begin="-0.5897435897435898s" dur="1s" keyTimes="0;1" values="1;0" attributeName="opacity"></animate>
  </rect>
</g><g transform="rotate(147.69230769230768 50 50)">
  <rect fill="#5651e5" height="5" width="15" ry="2.5" rx="7.3500000000000005" y="22.5" x="42.5">
    <animate repeatCount="indefinite" begin="-0.5769230769230769s" dur="1s" keyTimes="0;1" values="1;0" attributeName="opacity"></animate>
  </rect>
</g><g transform="rotate(152.30769230769232 50 50)">
  <rect fill="#5651e5" height="5" width="15" ry="2.5" rx="7.3500000000000005" y="22.5" x="42.5">
    <animate repeatCount="indefinite" begin="-0.5641025641025641s" dur="1s" keyTimes="0;1" values="1;0" attributeName="opacity"></animate>
  </rect>
</g><g transform="rotate(156.92307692307693 50 50)">
  <rect fill="#5651e5" height="5" width="15" ry="2.5" rx="7.3500000000000005" y="22.5" x="42.5">
    <animate repeatCount="indefinite" begin="-0.5512820512820513s" dur="1s" keyTimes="0;1" values="1;0" attributeName="opacity"></animate>
  </rect>
</g><g transform="rotate(161.53846153846155 50 50)">
  <rect fill="#5651e5" height="5" width="15" ry="2.5" rx="7.3500000000000005" y="22.5" x="42.5">
    <animate repeatCount="indefinite" begin="-0.5384615384615384s" dur="1s" keyTimes="0;1" values="1;0" attributeName="opacity"></animate>
  </rect>
</g><g transform="rotate(166.15384615384616 50 50)">
  <rect fill="#5651e5" height="5" width="15" ry="2.5" rx="7.3500000000000005" y="22.5" x="42.5">
    <animate repeatCount="indefinite" begin="-0.5256410256410257s" dur="1s" keyTimes="0;1" values="1;0" attributeName="opacity"></animate>
  </rect>
</g><g transform="rotate(170.76923076923077 50 50)">
  <rect fill="#5651e5" height="5" width="15" ry="2.5" rx="7.3500000000000005" y="22.5" x="42.5">
    <animate repeatCount="indefinite" begin="-0.5128205128205128s" dur="1s" keyTimes="0;1" values="1;0" attributeName="opacity"></animate>
  </rect>
</g><g transform="rotate(175.3846153846154 50 50)">
  <rect fill="#5651e5" height="5" width="15" ry="2.5" rx="7.3500000000000005" y="22.5" x="42.5">
    <animate repeatCount="indefinite" begin="-0.5s" dur="1s" keyTimes="0;1" values="1;0" attributeName="opacity"></animate>
  </rect>
</g><g transform="rotate(180 50 50)">
  <rect fill="#5651e5" height="5" width="15" ry="2.5" rx="7.3500000000000005" y="22.5" x="42.5">
    <animate repeatCount="indefinite" begin="-0.48717948717948717s" dur="1s" keyTimes="0;1" values="1;0" attributeName="opacity"></animate>
  </rect>
</g><g transform="rotate(184.6153846153846 50 50)">
  <rect fill="#5651e5" height="5" width="15" ry="2.5" rx="7.3500000000000005" y="22.5" x="42.5">
    <animate repeatCount="indefinite" begin="-0.47435897435897434s" dur="1s" keyTimes="0;1" values="1;0" attributeName="opacity"></animate>
  </rect>
</g><g transform="rotate(189.23076923076923 50 50)">
  <rect fill="#5651e5" height="5" width="15" ry="2.5" rx="7.3500000000000005" y="22.5" x="42.5">
    <animate repeatCount="indefinite" begin="-0.46153846153846156s" dur="1s" keyTimes="0;1" values="1;0" attributeName="opacity"></animate>
  </rect>
</g><g transform="rotate(193.84615384615384 50 50)">
  <rect fill="#5651e5" height="5" width="15" ry="2.5" rx="7.3500000000000005" y="22.5" x="42.5">
    <animate repeatCount="indefinite" begin="-0.44871794871794873s" dur="1s" keyTimes="0;1" values="1;0" attributeName="opacity"></animate>
  </rect>
</g><g transform="rotate(198.46153846153845 50 50)">
  <rect fill="#5651e5" height="5" width="15" ry="2.5" rx="7.3500000000000005" y="22.5" x="42.5">
    <animate repeatCount="indefinite" begin="-0.4358974358974359s" dur="1s" keyTimes="0;1" values="1;0" attributeName="opacity"></animate>
  </rect>
</g><g transform="rotate(203.07692307692307 50 50)">
  <rect fill="#5651e5" height="5" width="15" ry="2.5" rx="7.3500000000000005" y="22.5" x="42.5">
    <animate repeatCount="indefinite" begin="-0.4230769230769231s" dur="1s" keyTimes="0;1" values="1;0" attributeName="opacity"></animate>
  </rect>
</g><g transform="rotate(207.69230769230768 50 50)">
  <rect fill="#5651e5" height="5" width="15" ry="2.5" rx="7.3500000000000005" y="22.5" x="42.5">
    <animate repeatCount="indefinite" begin="-0.41025641025641024s" dur="1s" keyTimes="0;1" values="1;0" attributeName="opacity"></animate>
  </rect>
</g><g transform="rotate(212.30769230769232 50 50)">
  <rect fill="#5651e5" height="5" width="15" ry="2.5" rx="7.3500000000000005" y="22.5" x="42.5">
    <animate repeatCount="indefinite" begin="-0.3974358974358974s" dur="1s" keyTimes="0;1" values="1;0" attributeName="opacity"></animate>
  </rect>
</g><g transform="rotate(216.92307692307693 50 50)">
  <rect fill="#5651e5" height="5" width="15" ry="2.5" rx="7.3500000000000005" y="22.5" x="42.5">
    <animate repeatCount="indefinite" begin="-0.38461538461538464s" dur="1s" keyTimes="0;1" values="1;0" attributeName="opacity"></animate>
  </rect>
</g><g transform="rotate(221.53846153846155 50 50)">
  <rect fill="#5651e5" height="5" width="15" ry="2.5" rx="7.3500000000000005" y="22.5" x="42.5">
    <animate repeatCount="indefinite" begin="-0.3717948717948718s" dur="1s" keyTimes="0;1" values="1;0" attributeName="opacity"></animate>
  </rect>
</g><g transform="rotate(226.15384615384616 50 50)">
  <rect fill="#5651e5" height="5" width="15" ry="2.5" rx="7.3500000000000005" y="22.5" x="42.5">
    <animate repeatCount="indefinite" begin="-0.358974358974359s" dur="1s" keyTimes="0;1" values="1;0" attributeName="opacity"></animate>
  </rect>
</g><g transform="rotate(230.76923076923077 50 50)">
  <rect fill="#5651e5" height="5" width="15" ry="2.5" rx="7.3500000000000005" y="22.5" x="42.5">
    <animate repeatCount="indefinite" begin="-0.34615384615384615s" dur="1s" keyTimes="0;1" values="1;0" attributeName="opacity"></animate>
  </rect>
</g><g transform="rotate(235.3846153846154 50 50)">
  <rect fill="#5651e5" height="5" width="15" ry="2.5" rx="7.3500000000000005" y="22.5" x="42.5">
    <animate repeatCount="indefinite" begin="-0.3333333333333333s" dur="1s" keyTimes="0;1" values="1;0" attributeName="opacity"></animate>
  </rect>
</g><g transform="rotate(240 50 50)">
  <rect fill="#5651e5" height="5" width="15" ry="2.5" rx="7.3500000000000005" y="22.5" x="42.5">
    <animate repeatCount="indefinite" begin="-0.32051282051282054s" dur="1s" keyTimes="0;1" values="1;0" attributeName="opacity"></animate>
  </rect>
</g><g transform="rotate(244.6153846153846 50 50)">
  <rect fill="#5651e5" height="5" width="15" ry="2.5" rx="7.3500000000000005" y="22.5" x="42.5">
    <animate repeatCount="indefinite" begin="-0.3076923076923077s" dur="1s" keyTimes="0;1" values="1;0" attributeName="opacity"></animate>
  </rect>
</g><g transform="rotate(249.23076923076923 50 50)">
  <rect fill="#5651e5" height="5" width="15" ry="2.5" rx="7.3500000000000005" y="22.5" x="42.5">
    <animate repeatCount="indefinite" begin="-0.2948717948717949s" dur="1s" keyTimes="0;1" values="1;0" attributeName="opacity"></animate>
  </rect>
</g><g transform="rotate(253.84615384615384 50 50)">
  <rect fill="#5651e5" height="5" width="15" ry="2.5" rx="7.3500000000000005" y="22.5" x="42.5">
    <animate repeatCount="indefinite" begin="-0.28205128205128205s" dur="1s" keyTimes="0;1" values="1;0" attributeName="opacity"></animate>
  </rect>
</g><g transform="rotate(258.46153846153845 50 50)">
  <rect fill="#5651e5" height="5" width="15" ry="2.5" rx="7.3500000000000005" y="22.5" x="42.5">
    <animate repeatCount="indefinite" begin="-0.2692307692307692s" dur="1s" keyTimes="0;1" values="1;0" attributeName="opacity"></animate>
  </rect>
</g><g transform="rotate(263.0769230769231 50 50)">
  <rect fill="#5651e5" height="5" width="15" ry="2.5" rx="7.3500000000000005" y="22.5" x="42.5">
    <animate repeatCount="indefinite" begin="-0.2564102564102564s" dur="1s" keyTimes="0;1" values="1;0" attributeName="opacity"></animate>
  </rect>
</g><g transform="rotate(267.6923076923077 50 50)">
  <rect fill="#5651e5" height="5" width="15" ry="2.5" rx="7.3500000000000005" y="22.5" x="42.5">
    <animate repeatCount="indefinite" begin="-0.24358974358974358s" dur="1s" keyTimes="0;1" values="1;0" attributeName="opacity"></animate>
  </rect>
</g><g transform="rotate(272.3076923076923 50 50)">
  <rect fill="#5651e5" height="5" width="15" ry="2.5" rx="7.3500000000000005" y="22.5" x="42.5">
    <animate repeatCount="indefinite" begin="-0.23076923076923078s" dur="1s" keyTimes="0;1" values="1;0" attributeName="opacity"></animate>
  </rect>
</g><g transform="rotate(276.9230769230769 50 50)">
  <rect fill="#5651e5" height="5" width="15" ry="2.5" rx="7.3500000000000005" y="22.5" x="42.5">
    <animate repeatCount="indefinite" begin="-0.21794871794871795s" dur="1s" keyTimes="0;1" values="1;0" attributeName="opacity"></animate>
  </rect>
</g><g transform="rotate(281.53846153846155 50 50)">
  <rect fill="#5651e5" height="5" width="15" ry="2.5" rx="7.3500000000000005" y="22.5" x="42.5">
    <animate repeatCount="indefinite" begin="-0.20512820512820512s" dur="1s" keyTimes="0;1" values="1;0" attributeName="opacity"></animate>
  </rect>
</g><g transform="rotate(286.15384615384613 50 50)">
  <rect fill="#5651e5" height="5" width="15" ry="2.5" rx="7.3500000000000005" y="22.5" x="42.5">
    <animate repeatCount="indefinite" begin="-0.19230769230769232s" dur="1s" keyTimes="0;1" values="1;0" attributeName="opacity"></animate>
  </rect>
</g><g transform="rotate(290.7692307692308 50 50)">
  <rect fill="#5651e5" height="5" width="15" ry="2.5" rx="7.3500000000000005" y="22.5" x="42.5">
    <animate repeatCount="indefinite" begin="-0.1794871794871795s" dur="1s" keyTimes="0;1" values="1;0" attributeName="opacity"></animate>
  </rect>
</g><g transform="rotate(295.38461538461536 50 50)">
  <rect fill="#5651e5" height="5" width="15" ry="2.5" rx="7.3500000000000005" y="22.5" x="42.5">
    <animate repeatCount="indefinite" begin="-0.16666666666666666s" dur="1s" keyTimes="0;1" values="1;0" attributeName="opacity"></animate>
  </rect>
</g><g transform="rotate(300 50 50)">
  <rect fill="#5651e5" height="5" width="15" ry="2.5" rx="7.3500000000000005" y="22.5" x="42.5">
    <animate repeatCount="indefinite" begin="-0.15384615384615385s" dur="1s" keyTimes="0;1" values="1;0" attributeName="opacity"></animate>
  </rect>
</g><g transform="rotate(304.61538461538464 50 50)">
  <rect fill="#5651e5" height="5" width="15" ry="2.5" rx="7.3500000000000005" y="22.5" x="42.5">
    <animate repeatCount="indefinite" begin="-0.14102564102564102s" dur="1s" keyTimes="0;1" values="1;0" attributeName="opacity"></animate>
  </rect>
</g><g transform="rotate(309.2307692307692 50 50)">
  <rect fill="#5651e5" height="5" width="15" ry="2.5" rx="7.3500000000000005" y="22.5" x="42.5">
    <animate repeatCount="indefinite" begin="-0.1282051282051282s" dur="1s" keyTimes="0;1" values="1;0" attributeName="opacity"></animate>
  </rect>
</g><g transform="rotate(313.84615384615387 50 50)">
  <rect fill="#5651e5" height="5" width="15" ry="2.5" rx="7.3500000000000005" y="22.5" x="42.5">
    <animate repeatCount="indefinite" begin="-0.11538461538461539s" dur="1s" keyTimes="0;1" values="1;0" attributeName="opacity"></animate>
  </rect>
</g><g transform="rotate(318.46153846153845 50 50)">
  <rect fill="#5651e5" height="5" width="15" ry="2.5" rx="7.3500000000000005" y="22.5" x="42.5">
    <animate repeatCount="indefinite" begin="-0.10256410256410256s" dur="1s" keyTimes="0;1" values="1;0" attributeName="opacity"></animate>
  </rect>
</g><g transform="rotate(323.0769230769231 50 50)">
  <rect fill="#5651e5" height="5" width="15" ry="2.5" rx="7.3500000000000005" y="22.5" x="42.5">
    <animate repeatCount="indefinite" begin="-0.08974358974358974s" dur="1s" keyTimes="0;1" values="1;0" attributeName="opacity"></animate>
  </rect>
</g><g transform="rotate(327.6923076923077 50 50)">
  <rect fill="#5651e5" height="5" width="15" ry="2.5" rx="7.3500000000000005" y="22.5" x="42.5">
    <animate repeatCount="indefinite" begin="-0.07692307692307693s" dur="1s" keyTimes="0;1" values="1;0" attributeName="opacity"></animate>
  </rect>
</g><g transform="rotate(332.3076923076923 50 50)">
  <rect fill="#5651e5" height="5" width="15" ry="2.5" rx="7.3500000000000005" y="22.5" x="42.5">
    <animate repeatCount="indefinite" begin="-0.0641025641025641s" dur="1s" keyTimes="0;1" values="1;0" attributeName="opacity"></animate>
  </rect>
</g><g transform="rotate(336.9230769230769 50 50)">
  <rect fill="#5651e5" height="5" width="15" ry="2.5" rx="7.3500000000000005" y="22.5" x="42.5">
    <animate repeatCount="indefinite" begin="-0.05128205128205128s" dur="1s" keyTimes="0;1" values="1;0" attributeName="opacity"></animate>
  </rect>
</g><g transform="rotate(341.53846153846155 50 50)">
  <rect fill="#5651e5" height="5" width="15" ry="2.5" rx="7.3500000000000005" y="22.5" x="42.5">
    <animate repeatCount="indefinite" begin="-0.038461538461538464s" dur="1s" keyTimes="0;1" values="1;0" attributeName="opacity"></animate>
  </rect>
</g><g transform="rotate(346.15384615384613 50 50)">
  <rect fill="#5651e5" height="5" width="15" ry="2.5" rx="7.3500000000000005" y="22.5" x="42.5">
    <animate repeatCount="indefinite" begin="-0.02564102564102564s" dur="1s" keyTimes="0;1" values="1;0" attributeName="opacity"></animate>
  </rect>
</g><g transform="rotate(350.7692307692308 50 50)">
  <rect fill="#5651e5" height="5" width="15" ry="2.5" rx="7.3500000000000005" y="22.5" x="42.5">
    <animate repeatCount="indefinite" begin="-0.01282051282051282s" dur="1s" keyTimes="0;1" values="1;0" attributeName="opacity"></animate>
  </rect>
</g><g transform="rotate(355.38461538461536 50 50)">
  <rect fill="#5651e5" height="5" width="15" ry="2.5" rx="7.3500000000000005" y="22.5" x="42.5">
    <animate repeatCount="indefinite" begin="0s" dur="1s" keyTimes="0;1" values="1;0" attributeName="opacity"></animate>
  </rect>
</g><g></g></g><!-- [ldio] generated by https://loading.io --></svg>